# Blender v2.76 (sub 0) OBJ File: 'predio.blend'
# www.blender.org
mtllib ap_bed.mtl
o Plane_Plane_None
v 8.710871 270.425415 -4.655759
v 8.722287 270.516144 -6.445391
v 6.934998 270.535492 -6.431632
v -0.159708 270.520233 -6.465480
v -0.452840 269.685059 -6.755105
v -0.479984 269.833405 -4.752648
v -0.228951 270.470001 2.407426
v -0.443130 269.500244 3.012903
v 1.540854 269.866516 2.839619
v 8.639368 270.453339 2.435205
v 8.995703 269.325897 2.790953
v 8.813400 269.713470 0.738616
v 9.001301 269.652344 -6.674327
v 6.939980 269.713470 -6.404937
v 1.607380 270.535492 -6.431632
v 1.503999 269.713470 -6.460220
v 3.528370 270.548218 -6.515485
v 3.353686 269.726776 -6.600932
v 5.156649 270.505402 -6.408945
v 5.205667 269.559875 -6.724759
v 6.934998 270.535492 2.447731
v 6.995263 269.713470 2.556752
v 5.159125 270.405914 2.447731
v 5.235987 269.547638 2.720891
v 3.504170 270.535492 2.467884
v 3.358990 269.713470 2.556752
v 1.647686 270.641937 2.608955
v 1.607332 270.644501 -4.655652
v 3.383253 270.535492 -4.655759
v 5.300196 270.535492 -4.776676
v 6.591618 270.516052 -4.473892
v 6.680072 270.815552 0.628889
v 6.874540 270.640076 -1.104014
v 5.280359 270.503326 -1.083764
v 7.117110 270.452423 -2.983522
v 5.159125 270.686066 -2.879886
v 5.158538 270.547699 0.672261
v 3.382585 270.710754 -1.103701
v 3.384527 270.800964 0.672730
v 1.878919 270.775421 0.668922
v 1.607380 270.460815 -1.104014
v 3.242182 270.535492 -3.020957
v -0.168492 270.597412 0.671860
v 1.465616 270.457214 -3.023664
v -0.105171 270.449890 -2.900719
v -0.249104 270.535492 -4.655759
v 8.681467 269.713470 -4.715794
v 8.708664 270.549774 -2.900151
v 8.979917 269.554565 -2.897971
v 8.710871 270.421265 -1.104014
v 8.811867 269.713470 -1.079520
v 8.710871 270.535492 0.671860
v -0.295710 269.713470 0.867609
v -0.168492 270.581940 -1.104014
v -0.369419 269.793427 -1.024237
v -0.401669 269.554840 -2.916411
v 6.934838 270.500427 -6.396250
v 8.697468 270.480835 -6.420497
v 8.675132 270.390778 -4.653806
v -0.432722 269.817688 -4.753559
v -0.424727 269.663147 -6.720317
v -0.137972 270.484314 -6.438679
v 1.539888 269.850189 2.792565
v -0.413491 269.474518 2.982207
v -0.199360 270.434906 2.388088
v 8.764204 269.705658 0.738063
v 8.963841 269.305573 2.758488
v 8.614534 270.418671 2.409457
v 6.940009 269.710449 -6.355212
v 8.967913 269.633179 -6.642708
v 1.504291 269.709686 -6.410550
v 1.607988 270.499847 -6.396853
v 3.356365 269.721558 -6.551460
v 3.529233 270.510834 -6.482546
v 5.201225 269.545410 -6.677294
v 5.153798 270.465729 -6.378951
v 6.995294 269.704285 2.507793
v 6.934361 270.499664 2.413140
v 5.235760 269.532501 2.673428
v 5.159682 270.368652 2.414692
v 3.356352 269.705963 2.507575
v 3.500361 270.500122 2.433018
v 1.647608 270.603760 2.576951
v 1.607594 270.594666 -4.656520
v 3.382761 270.485687 -4.654979
v 5.299744 270.485718 -4.774822
v 6.589250 270.466309 -4.473856
v 6.680396 270.765747 0.627759
v 5.280531 270.453522 -1.085030
v 6.872190 270.590393 -1.100868
v 5.158140 270.636261 -2.878982
v 7.114286 270.402710 -2.982260
v 5.159757 270.497925 0.670743
v 3.383540 270.661011 -1.100976
v 1.881639 270.725708 0.669966
v 3.381521 270.751282 0.670447
v 3.244977 270.485779 -3.020145
v 1.609959 270.411224 -1.100032
v -0.135818 270.559814 0.671908
v -0.076267 270.409332 -2.901756
v 1.467136 270.407471 -3.026059
v -0.218462 270.496277 -4.657591
v 8.631731 269.712891 -4.713003
v 8.931412 269.543213 -2.898263
v 8.680037 270.509033 -2.900790
v 8.762688 269.705536 -1.080048
v 8.676107 270.385620 -1.102799
v 8.676280 270.499664 0.670913
v -0.246471 269.705902 0.867623
v -0.321082 269.781403 -1.023484
v -0.139323 270.541595 -1.101827
v -0.354397 269.539215 -2.918038
vn 0.011200 0.998700 0.050700
vn -0.938700 0.342700 -0.038100
vn -0.024600 0.533300 0.845500
vn 0.955700 0.292700 -0.029600
vn -0.120100 0.217900 -0.968500
vn 0.018900 0.032400 -0.999300
vn -0.044100 0.112600 -0.992700
vn 0.070200 0.319300 -0.945000
vn -0.012200 -0.032500 -0.999400
vn 0.013700 0.132400 0.991100
vn 0.059600 0.307600 0.949700
vn 0.020200 0.103900 0.994400
vn 0.169700 0.259400 0.950700
vn -0.007400 0.998100 -0.061300
vn -0.006300 1.000000 0.006400
vn 0.027600 0.999400 -0.020900
vn 0.012200 0.999900 0.012100
vn -0.071800 0.984200 0.161600
vn -0.086300 0.990200 -0.109900
vn 0.113700 0.989900 -0.084200
vn 0.118500 0.993000 0.000600
vn 0.078800 0.993700 0.079300
vn 0.108800 0.993900 -0.017500
vn 0.107200 0.989800 0.093500
vn -0.005000 0.996800 -0.079500
vn -0.017200 0.988900 0.147400
vn -0.016800 0.998600 -0.050700
vn -0.139000 0.987100 -0.080100
vn 0.061300 0.998100 0.005300
vn -0.086400 0.994600 0.058100
vn -0.085700 0.983200 -0.161300
vn -0.004800 1.000000 -0.001500
vn -0.058300 0.992400 0.108800
vn 0.999100 -0.041600 0.004300
vn 0.964700 0.262900 -0.017400
vn 0.989900 0.141600 0.008900
vn 0.992300 0.123700 -0.000800
vn -0.990300 0.137100 -0.024400
vn -0.969100 0.246700 -0.002200
vn -0.948900 0.314700 -0.023500
vn -0.949600 0.299500 0.092500
vn 0.048400 0.997700 0.048400
vn 0.118100 0.991000 -0.063700
vn -0.064600 0.995400 0.071300
vn -0.057200 0.995900 -0.070600
vn 0.044200 0.998900 0.017700
vn -0.946700 0.318200 -0.049400
vn -0.128900 0.299000 0.945500
vn 0.990800 0.127300 0.046100
vn -0.008000 -0.032500 -0.999400
vn 0.139000 0.280500 -0.949700
vn -0.076100 0.044200 -0.996100
vn -0.055900 0.115100 -0.991800
vn 0.144300 0.320200 -0.936300
vn -0.057000 0.284000 0.957100
vn -0.009500 0.130800 0.991400
vn -0.057000 0.298100 0.952800
vn 0.080700 0.093000 0.992400
vn -0.058600 0.998200 -0.011300
vn 0.061100 0.996300 -0.061100
vn 0.000400 1.000000 0.006900
vn -0.017100 0.999700 -0.016900
vn -0.170700 0.982200 0.078500
vn -0.174300 0.984000 -0.037000
vn -0.083600 0.990800 0.106500
vn 0.033000 0.996500 -0.076700
vn 0.140100 0.980800 0.135700
vn 0.141100 0.988700 -0.050400
vn -0.071800 0.993700 -0.085600
vn -0.077800 0.996900 -0.006700
vn 0.062800 0.995100 0.076000
vn -0.137800 0.978600 -0.152600
vn -0.044000 0.999000 0.001400
vn -0.043900 0.992900 0.110100
vn -0.098400 0.992700 0.069500
vn 0.068000 0.997600 -0.008700
vn 0.067900 0.995200 -0.070700
vn -0.000800 0.998800 0.048800
vn 0.952000 0.268500 0.147100
vn 0.986100 -0.026900 -0.164200
vn 0.962700 0.262500 0.066000
vn 0.990000 0.140900 -0.009100
vn -0.981300 0.186200 -0.048900
vn -0.987400 0.152000 0.044900
vn -0.969000 0.241700 -0.051900
vn -0.946100 0.311900 0.087700
vn 0.132700 0.982200 0.132700
vn 0.137900 0.986800 -0.084500
vn 0.117900 0.989500 -0.083600
vn 0.045000 0.998600 0.026800
vn -0.011800 -0.998600 -0.051000
vn 0.940400 -0.338800 0.030500
vn 0.019400 -0.529100 -0.848300
vn -0.956700 -0.288500 0.037400
vn 0.129200 -0.212700 0.968500
vn -0.023800 -0.014200 0.999600
vn 0.044900 -0.096700 0.994300
vn -0.069100 -0.310900 0.947900
vn 0.008700 0.051900 0.998600
vn -0.007900 -0.118800 -0.992900
vn -0.060300 -0.300100 -0.952000
vn -0.018100 -0.090200 -0.995800
vn -0.169400 -0.248700 -0.953700
vn 0.007600 -0.998500 0.054400
vn 0.005100 -0.999900 -0.013400
vn -0.028700 -0.999500 0.015100
vn -0.010500 -0.999800 -0.019600
vn 0.072600 -0.984900 -0.157100
vn 0.086200 -0.990200 0.110000
vn -0.113800 -0.989900 0.084100
vn -0.112500 -0.990100 0.084200
vn -0.113300 -0.990000 0.084200
vn -0.118600 -0.992900 -0.000600
vn -0.079600 -0.994100 -0.073700
vn -0.108900 -0.993900 0.017700
vn -0.107500 -0.989800 -0.093500
vn 0.005000 -0.996800 0.079500
vn 0.016900 -0.989700 -0.142200
vn 0.017000 -0.998600 0.050900
vn 0.139100 -0.987000 0.080100
vn -0.061300 -0.998100 -0.005100
vn 0.081800 -0.995200 -0.053600
vn 0.081000 -0.983400 0.162300
vn -0.001000 -1.000000 0.002000
vn 0.053500 -0.992600 -0.109300
vn -0.997900 0.064700 -0.009300
vn -0.967600 -0.251800 0.019700
vn -0.991900 -0.126600 -0.010900
vn -0.993900 -0.110000 0.000800
vn 0.992100 -0.122200 0.027800
vn 0.972600 -0.232500 0.000500
vn 0.952200 -0.304800 0.022200
vn 0.953200 -0.288000 -0.091500
vn -0.048200 -0.997700 -0.048200
vn -0.112500 -0.991600 0.063800
vn 0.071100 -0.995100 -0.068200
vn 0.064100 -0.995700 0.067000
vn -0.038300 -0.999000 -0.024700
vn 0.950800 -0.306600 0.045000
vn 0.123500 -0.289300 -0.949300
vn -0.992700 -0.113400 -0.040500
vn 0.014300 0.052000 0.998500
vn -0.146000 -0.275000 0.950300
vn 0.076000 -0.027300 0.996700
vn 0.058300 -0.099500 0.993300
vn -0.144400 -0.311900 0.939100
vn 0.065300 -0.279900 -0.957800
vn 0.007800 -0.117600 -0.993000
vn 0.057500 -0.290400 -0.955200
vn -0.081600 -0.078500 -0.993600
vn 0.053800 -0.998500 0.009100
vn -0.061200 -0.996600 0.054300
vn -0.000800 -0.999900 -0.013800
vn 0.019600 -0.999800 0.010700
vn 0.171000 -0.982600 -0.072800
vn 0.174300 -0.984000 0.036900
vn 0.084100 -0.990700 -0.106700
vn -0.032900 -0.996500 0.076700
vn -0.139800 -0.981500 -0.130400
vn -0.140900 -0.988800 0.050200
vn 0.071900 -0.993700 0.085500
vn 0.077900 -0.996900 0.006700
vn -0.061200 -0.995600 -0.071200
vn 0.137900 -0.978600 0.152700
vn 0.044000 -0.999000 -0.001300
vn 0.044100 -0.992900 -0.110200
vn 0.097800 -0.992800 -0.068600
vn -0.074300 -0.997200 0.010400
vn -0.074200 -0.994700 0.070500
vn -0.005200 -0.998800 -0.049100
vn -0.952200 -0.263200 -0.155000
vn -0.984700 0.048500 0.167200
vn -0.965500 -0.251500 -0.067100
vn -0.992000 -0.126000 0.008200
vn 0.981400 -0.183300 0.057500
vn 0.989400 -0.138400 -0.044600
vn 0.972500 -0.227300 0.050800
vn 0.949400 -0.301900 -0.086300
vn -0.128300 -0.983400 -0.128300
vn -0.133500 -0.987400 0.085300
vn -0.112300 -0.990100 0.084300
vn -0.038700 -0.998800 -0.029000
vn -0.157700 -0.980200 -0.119600
vn -0.150800 -0.981300 -0.119300
vn -0.713200 -0.691000 -0.117900
vn -0.217600 -0.958400 0.184600
vn -0.217300 -0.959600 0.178700
vn -0.216900 -0.721700 0.657400
vn 0.019700 -0.998800 0.044600
vn 0.014100 -0.998900 0.043800
vn 0.572100 -0.811500 0.118800
vn 0.037000 -0.995900 -0.082100
vn 0.036300 -0.996400 -0.076200
vn 0.099500 -0.806000 -0.583600
vn 0.208700 -0.923300 0.322500
vn 0.185300 -0.658100 0.729800
vn 0.185800 -0.662100 0.726000
vn -0.053900 -0.986200 0.156600
vn -0.028400 -0.944300 0.327800
vn -0.028800 -0.945200 0.325100
vn -0.104500 -0.982000 0.157400
vn -0.104400 -0.982400 0.155100
vn -0.110000 -0.947500 0.300100
vn 0.112700 -0.976200 0.185400
vn 0.117300 -0.946300 0.301200
vn 0.117200 -0.946900 0.299300
vn -0.047200 -0.996700 -0.066800
vn -0.101100 -0.800200 -0.591100
vn -0.100700 -0.803500 -0.586700
vn 0.105900 -0.992300 -0.063800
vn 0.105400 -0.992600 -0.060300
vn 0.134900 -0.952500 -0.273100
vn -0.101400 -0.989500 -0.103000
vn -0.105500 -0.948800 -0.297700
vn -0.105500 -0.949800 -0.294600
vn 0.000600 -0.997100 -0.076500
vn -0.000800 -0.994600 -0.104100
vn -0.000800 -0.994600 -0.103700
vn -0.317900 -0.945300 0.072900
vn -0.649900 -0.758600 0.047400
vn -0.646700 -0.761200 0.047800
vn -0.315200 -0.940200 -0.129200
vn -0.315100 -0.940200 -0.129200
vn -0.306400 -0.943500 0.125900
vn -0.307400 -0.943200 0.126000
vn -0.242400 -0.962000 0.125500
vn -0.153300 -0.987600 -0.033400
vn -0.240800 -0.970100 -0.031600
vn -0.239400 -0.970400 -0.031600
vn 0.161900 -0.964900 -0.206900
vn 0.661200 -0.724300 -0.195500
vn 0.656900 -0.728100 -0.196000
vn 0.159200 -0.987200 -0.000100
vn 0.156800 -0.987600 -0.000100
vn 0.156900 -0.987600 -0.000100
vn 0.158500 -0.982000 0.102300
vn 0.157400 -0.982200 0.102200
vn 0.224900 -0.968700 0.105500
vn 0.009800 -0.995500 -0.094700
vn 0.226900 -0.966300 -0.121700
vn 0.223500 -0.967100 -0.121300
vn -0.717600 -0.686500 -0.117600
vn -0.216600 -0.717900 0.661600
vn 0.576900 -0.808000 0.119300
vn 0.100000 -0.802500 -0.588200
vn 0.208700 -0.925400 0.316400
vn -0.054300 -0.986600 0.153800
vn -0.110100 -0.946800 0.302400
vn 0.112600 -0.976600 0.183400
vn -0.046600 -0.997000 -0.061500
vn 0.135400 -0.951400 -0.276700
vn -0.101300 -0.989900 -0.099600
vn 0.000600 -0.997100 -0.076000
vn -0.313400 -0.946800 0.073100
vn -0.241300 -0.962300 0.125500
vn -0.151800 -0.987800 -0.033400
vn 0.155700 -0.965900 -0.206700
vn 0.159300 -0.987200 -0.000100
vn 0.226000 -0.968400 0.105600
vn 0.006300 -0.995500 -0.094200
g Plane_Plane_None_Plane_Plane_None_tecido
usemtl tecido
s 1
f 1//1 2//1 3//1
f 4//2 5//2 6//2
f 7//3 8//3 9//3
f 10//4 11//4 12//4
f 2//5 13//5 14//5
f 4//6 15//6 16//6
f 15//7 17//7 18//7
f 17//8 19//8 20//8
f 19//9 3//9 14//9
f 10//10 21//10 22//10
f 23//11 24//11 22//11
f 23//12 25//12 26//12
f 27//13 9//13 26//13
f 28//14 15//14 4//14
f 29//15 17//15 15//15
f 30//16 19//16 17//16
f 30//17 31//17 3//17
f 23//18 21//18 32//18
f 32//19 33//19 34//19
f 33//20 35//20 36//20
f 36//21 35//21 31//21
f 25//22 23//22 37//22
f 37//23 34//23 38//23
f 38//24 34//24 36//24
f 36//25 30//25 29//25
f 25//26 39//26 40//26
f 40//27 39//27 38//27
f 41//28 38//28 42//28
f 42//29 29//29 28//29
f 27//30 40//30 43//30
f 43//31 40//31 41//31
f 41//32 44//32 45//32
f 44//33 28//33 46//33
f 2//34 1//34 47//34
f 1//35 48//35 49//35
f 48//36 50//36 51//36
f 52//37 12//37 51//37
f 7//38 43//38 53//38
f 43//39 54//39 55//39
f 45//40 56//40 55//40
f 45//41 46//41 6//41
f 21//42 10//42 52//42
f 52//43 50//43 33//43
f 50//44 48//44 35//44
f 35//45 48//45 1//45
f 31//46 1//46 3//46
f 46//47 4//47 6//47
f 27//48 7//48 9//48
f 52//49 10//49 12//49
f 3//50 2//50 14//50
f 5//51 4//51 16//51
f 16//52 15//52 18//52
f 18//53 17//53 20//53
f 20//54 19//54 14//54
f 11//55 10//55 22//55
f 21//56 23//56 22//56
f 24//57 23//57 26//57
f 25//58 27//58 26//58
f 46//59 28//59 4//59
f 28//60 29//60 15//60
f 29//61 30//61 17//61
f 19//62 30//62 3//62
f 37//63 23//63 32//63
f 37//64 32//64 34//64
f 34//65 33//65 36//65
f 30//66 36//66 31//66
f 39//67 25//67 37//67
f 39//68 37//68 38//68
f 42//69 38//69 36//69
f 42//70 36//70 29//70
f 27//71 25//71 40//71
f 41//72 40//72 38//72
f 44//73 41//73 42//73
f 44//74 42//74 28//74
f 7//75 27//75 43//75
f 54//76 43//76 41//76
f 54//77 41//77 45//77
f 45//78 44//78 46//78
f 13//79 2//79 47//79
f 47//80 1//80 49//80
f 49//81 48//81 51//81
f 50//82 52//82 51//82
f 8//83 7//83 53//83
f 53//84 43//84 55//84
f 54//85 45//85 55//85
f 56//86 45//86 6//86
f 32//87 21//87 52//87
f 32//88 52//88 33//88
f 33//89 50//89 35//89
f 31//90 35//90 1//90
f 57//91 58//91 59//91
f 60//92 61//92 62//92
f 63//93 64//93 65//93
f 66//94 67//94 68//94
f 69//95 70//95 58//95
f 71//96 72//96 62//96
f 73//97 74//97 72//97
f 75//98 76//98 74//98
f 69//99 57//99 76//99
f 77//100 78//100 68//100
f 77//101 79//101 80//101
f 81//102 82//102 80//102
f 81//103 63//103 83//103
f 62//104 72//104 84//104
f 72//105 74//105 85//105
f 74//106 76//106 86//106
f 57//107 87//107 86//107
f 88//108 78//108 80//108
f 89//109 90//109 88//109
f 91//110 92//111 90//112
f 87//113 92//113 91//113
f 93//114 80//114 82//114
f 94//115 89//115 93//115
f 91//116 89//116 94//116
f 85//117 86//117 91//117
f 95//118 96//118 82//118
f 94//119 96//119 95//119
f 97//120 94//120 98//120
f 84//121 85//121 97//121
f 99//122 95//122 83//122
f 98//123 95//123 99//123
f 100//124 101//124 98//124
f 102//125 84//125 101//125
f 103//126 59//126 58//126
f 104//127 105//127 59//127
f 106//128 107//128 105//128
f 106//129 66//129 108//129
f 109//130 99//130 65//130
f 110//131 111//131 99//131
f 110//132 112//132 100//132
f 60//133 102//133 100//133
f 108//134 68//134 78//134
f 90//135 107//135 108//135
f 92//136 105//136 107//136
f 59//137 105//137 92//137
f 57//138 59//138 87//138
f 60//139 62//139 102//139
f 63//140 65//140 83//140
f 66//141 68//141 108//141
f 69//142 58//142 57//142
f 71//143 62//143 61//143
f 73//144 72//144 71//144
f 75//145 74//145 73//145
f 69//146 76//146 75//146
f 77//147 68//147 67//147
f 77//148 80//148 78//148
f 81//149 80//149 79//149
f 81//150 83//150 82//150
f 62//151 84//151 102//151
f 72//152 85//152 84//152
f 74//153 86//153 85//153
f 57//154 86//154 76//154
f 88//155 80//155 93//155
f 89//156 88//156 93//156
f 91//157 90//157 89//157
f 87//158 91//158 86//158
f 93//159 82//159 96//159
f 94//160 93//160 96//160
f 91//161 94//161 97//161
f 85//162 91//162 97//162
f 95//163 82//163 83//163
f 94//164 95//164 98//164
f 97//165 98//165 101//165
f 84//166 97//166 101//166
f 99//167 83//167 65//167
f 98//168 99//168 111//168
f 100//169 98//169 111//169
f 102//170 101//170 100//170
f 103//171 58//171 70//171
f 104//172 59//172 103//172
f 106//173 105//173 104//173
f 106//174 108//174 107//174
f 109//175 65//175 64//175
f 110//176 99//176 109//176
f 110//177 100//177 111//177
f 60//178 100//178 112//178
f 108//179 78//179 88//179
f 90//180 108//180 88//180
f 92//111 107//181 90//112
f 59//182 92//182 87//182
f 53//183 109//184 64//185
f 22//186 77//187 67//188
f 47//189 103//190 70//191
f 16//192 71//193 61//194
f 9//195 8//196 64//197
f 26//198 9//199 63//200
f 26//201 81//202 79//203
f 22//204 24//205 79//206
f 14//207 13//208 70//209
f 14//210 69//211 75//212
f 18//213 20//214 75//215
f 16//216 18//217 73//218
f 6//219 5//220 61//221
f 56//222 6//223 60//223
f 56//224 112//225 110//226
f 53//227 55//228 110//229
f 12//230 11//231 67//232
f 51//233 12//234 66//235
f 51//236 106//237 104//238
f 47//239 49//240 104//241
f 8//242 53//183 64//185
f 11//243 22//186 67//188
f 13//244 47//189 70//191
f 5//245 16//192 61//194
f 63//246 9//195 64//197
f 81//247 26//198 63//200
f 24//248 26//201 79//203
f 77//249 22//204 79//206
f 69//250 14//207 70//209
f 20//251 14//210 75//212
f 73//252 18//213 75//215
f 71//253 16//216 73//218
f 60//254 6//219 61//221
f 112//222 56//222 60//223
f 55//255 56//224 110//226
f 109//256 53//227 110//229
f 66//257 12//230 67//232
f 106//258 51//233 66//235
f 49//259 51//236 104//238
f 103//260 47//239 104//241
