# Blender v2.76 (sub 0) OBJ File: 'predio.blend'
# www.blender.org
mtllib ap_tapete.mtl
o Plane.018_Plane.018_None.002
v 14.991407 268.781586 -43.221245
v 12.658443 268.781586 -42.960613
v 13.207504 268.781586 -38.045933
v 10.325480 268.647705 -42.699974
v 10.874541 268.647705 -37.785297
v 7.992516 268.781586 -42.439339
v 8.541576 268.647705 -37.524662
v 5.659553 268.647705 -42.178703
v 10.737823 268.781586 -17.865946
v 10.188762 268.647705 -22.780624
v 7.855798 268.781586 -22.519989
v 9.639700 268.781586 -27.695303
v 7.306737 268.647705 -27.434668
v 9.090638 268.781586 -32.609982
v 6.757675 268.647705 -32.349346
v 6.208614 268.647705 -37.264027
v 12.521727 268.647705 -23.041260
v 11.972665 268.781586 -27.955938
v 11.423603 268.647705 -32.870621
v 15.403750 268.647705 -18.387217
v 14.854689 268.647705 -23.301895
v 14.305628 268.781586 -28.216574
v 13.756566 268.781586 -33.131256
v 17.187653 268.781586 -23.562531
v 16.638592 268.647705 -28.477211
v 16.089531 268.781586 -33.391888
v 15.540468 268.647705 -38.306568
v 5.522834 268.781586 -22.259354
v 6.071896 268.781586 -17.344675
v 4.973773 268.647705 -27.174034
v 4.424711 268.781586 -32.088711
v 3.875649 268.647705 -37.003391
v 13.208141 268.759949 -38.046001
v 12.658929 268.759949 -42.962029
v 14.989835 268.759979 -43.223785
v 10.325966 268.626099 -42.701393
v 8.541576 268.626099 -37.524662
v 7.992216 268.759979 -42.442024
v 5.660202 268.626099 -42.180588
v 7.855704 268.759949 -22.517941
v 10.188519 268.626099 -22.779919
v 10.737636 268.760010 -17.861853
v 7.307130 268.626099 -27.434034
v 9.639943 268.759949 -27.696009
v 6.758069 268.626099 -32.348713
v 9.091182 268.759949 -32.608006
v 6.209007 268.626099 -37.263390
v 12.521332 268.626099 -23.041897
v 13.070601 268.760010 -18.122486
v 11.972515 268.759949 -27.957279
v 11.424146 268.626099 -32.868641
v 10.875177 268.626099 -37.785370
v 14.854933 268.626099 -23.302601
v 15.403951 268.626099 -18.385426
v 14.305478 268.759949 -28.217916
v 13.756959 268.759949 -33.130615
v 17.188503 268.759949 -23.562626
v 16.637804 268.626099 -28.478481
v 16.088255 268.759979 -33.391747
v 15.539193 268.626099 -38.306427
v 6.071896 268.759949 -17.344675
v 5.523134 268.759979 -22.256674
v 4.973285 268.626099 -27.172621
v 4.423437 268.759979 -32.088570
v 3.875001 268.626099 -37.001507
v 8.404373 268.759949 -17.603897
v 8.404860 268.781586 -17.605309
v 13.070787 268.781586 -18.126581
vn 0.000000 1.000000 -0.000000
vn -0.056600 0.998400 0.006300
vn 0.059600 0.998000 0.020500
vn -0.053600 0.998000 0.033200
vn 0.053600 0.998000 -0.033200
vn -0.059600 0.998000 -0.020500
vn -0.003000 0.999600 -0.026900
vn 0.003000 0.999600 0.026900
vn 0.000000 -1.000000 0.000000
vn 0.056600 -0.998400 -0.006300
vn -0.059500 -0.998000 -0.020500
vn 0.053600 -0.998000 -0.033200
vn -0.053500 -0.998000 0.033200
vn 0.053500 -0.998000 -0.033200
vn 0.003000 -0.999600 0.026900
vn -0.003000 -0.999600 -0.026900
vn -0.053600 -0.998000 0.033200
vn 0.059600 -0.998000 0.020500
vn -0.059600 -0.998000 -0.020500
vn 0.991900 -0.059100 -0.112300
vn 0.991900 -0.059000 -0.112500
vn -0.993800 -0.000000 0.111300
vn -0.993800 -0.000000 0.111000
vn 0.110600 0.000000 0.993900
vn 0.110100 0.062200 0.992000
vn 0.109600 0.062200 0.992000
vn 0.109200 0.184500 0.976700
vn 0.109200 0.184600 0.976700
vn 0.119500 0.184000 0.975600
vn -0.110200 0.124000 -0.986200
vn -0.114500 0.062600 -0.991400
vn -0.112800 0.062300 -0.991700
vn -0.113700 0.062300 -0.991600
vn -0.106800 0.062900 -0.992300
vn -0.117300 0.124200 -0.985300
vn 0.992900 0.039600 -0.112300
vn 0.993300 -0.029500 -0.111800
vn 0.992200 -0.059300 -0.109200
vn 0.992300 -0.059300 -0.109200
vn 0.944500 0.035800 0.326400
vn 0.944400 0.035600 0.326800
vn -0.993200 0.039400 0.110000
vn -0.991900 0.059300 0.112500
vn -0.993500 0.029600 0.110300
vn -0.945400 0.000000 -0.325900
vn -0.945300 -0.000100 -0.326100
vn 0.059500 -0.998000 0.020500
vn -0.053600 -0.998000 0.033100
vn -0.053500 -0.998000 0.033100
vn 0.110700 0.062100 0.991900
vn 0.116200 0.083100 0.989700
vn -0.111400 0.062400 -0.991800
vn -0.103000 0.123900 -0.986900
vn -0.115600 0.082800 -0.989800
vn 0.993500 -0.029600 -0.110400
vn 0.991900 -0.059400 -0.112600
vn -0.992300 0.059300 0.109200
vn -0.993300 0.029700 0.111800
g Plane.018_Plane.018_None.002_Plane.018_Plane.018_None.002_tapete.001
usemtl tapete.001
s 1
f 1//1 2//1 3//1
f 2//2 4//2 5//2
f 4//3 6//3 7//3
f 7//4 6//4 8//4
f 9//5 10//5 11//5
f 12//6 13//6 11//6
f 14//2 15//2 13//2
f 7//1 16//1 15//1
f 17//7 10//7 9//7
f 18//8 12//8 10//8
f 18//5 19//5 14//5
f 19//1 5//1 7//1
f 20//1 21//1 17//1
f 22//8 18//8 17//8
f 23//6 19//6 18//6
f 3//2 5//2 19//2
f 24//2 21//2 20//2
f 25//3 22//3 21//3
f 26//1 23//1 22//1
f 26//5 27//5 3//5
f 11//1 28//1 29//1
f 13//7 30//7 28//7
f 15//3 31//3 30//3
f 15//1 16//1 32//1
f 16//1 8//1 32//1
f 33//9 34//9 35//9
f 36//10 34//10 33//10
f 37//11 38//11 36//11
f 39//12 38//12 37//12
f 40//13 41//13 42//13
f 43//14 44//14 41//14
f 45//10 46//10 44//10
f 45//9 47//9 37//9
f 41//15 48//15 49//15
f 44//16 50//16 48//16
f 46//17 51//17 50//17
f 37//9 52//9 51//9
f 48//9 53//9 54//9
f 50//16 55//16 53//16
f 50//18 51//18 56//18
f 52//10 33//10 56//10
f 54//10 53//10 57//10
f 53//19 55//19 58//19
f 55//9 56//9 59//9
f 33//17 60//17 59//17
f 61//9 62//9 40//9
f 63//15 43//15 40//15
f 63//11 64//11 45//11
f 65//9 47//9 45//9
f 65//9 39//9 47//9
f 27//20 60//20 35//21
f 29//22 28//23 62//23
f 29//24 61//24 66//24
f 67//25 66//25 42//26
f 9//27 42//27 49//28
f 20//29 68//29 49//29
f 2//30 1//30 35//30
f 4//31 2//32 34//33
f 4//34 36//34 38//34
f 8//35 6//35 38//35
f 25//36 24//36 57//36
f 25//37 58//37 59//37
f 27//38 26//39 59//39
f 20//40 54//40 57//41
f 32//42 65//42 64//42
f 30//43 31//43 64//43
f 30//44 63//44 62//44
f 8//45 39//45 65//46
f 27//3 1//3 3//3
f 3//2 2//2 5//2
f 5//1 4//1 7//1
f 16//1 7//1 8//1
f 67//1 9//1 11//1
f 10//3 12//3 11//3
f 12//2 14//2 13//2
f 14//6 7//6 15//6
f 68//7 17//7 9//7
f 17//8 18//8 10//8
f 12//1 18//1 14//1
f 14//5 19//5 7//5
f 68//5 20//5 17//5
f 21//8 22//8 17//8
f 22//1 23//1 18//1
f 23//2 3//2 19//2
f 24//6 25//6 21//6
f 25//3 26//3 22//3
f 23//1 26//1 3//1
f 67//1 11//1 29//1
f 11//7 13//7 28//7
f 13//1 15//1 30//1
f 31//5 15//5 32//5
f 60//19 33//19 35//19
f 52//10 36//10 33//10
f 52//9 37//9 36//9
f 47//9 39//9 37//9
f 66//9 40//9 42//9
f 40//13 43//13 41//13
f 43//10 45//10 44//10
f 46//47 45//47 37//47
f 42//15 41//15 49//15
f 41//16 44//16 48//16
f 44//9 46//9 50//9
f 46//17 37//48 51//17
f 49//49 48//49 54//49
f 48//16 50//16 53//16
f 55//9 50//9 56//9
f 51//10 52//10 56//10
f 57//47 53//47 58//47
f 58//19 55//19 59//19
f 56//9 33//9 59//9
f 66//9 61//9 40//9
f 62//15 63//15 40//15
f 43//9 63//9 45//9
f 64//13 65//13 45//13
f 1//21 27//20 35//21
f 61//22 29//22 62//23
f 67//25 29//50 66//25
f 9//27 67//27 42//27
f 68//28 9//27 49//28
f 54//51 20//51 49//51
f 34//33 2//32 35//52
f 36//31 4//31 34//33
f 6//53 4//53 38//53
f 39//54 8//54 38//54
f 58//55 25//55 57//55
f 26//56 25//56 59//56
f 60//38 27//38 59//39
f 24//41 20//40 57//41
f 31//57 32//57 64//57
f 63//58 30//58 64//58
f 28//23 30//23 62//23
f 32//46 8//45 65//46
o Plane.018_Plane.018_None.001
v -0.730797 268.781586 -46.408413
v -3.899420 268.781586 -46.408417
v -3.899420 268.781586 -41.190067
v -7.068041 268.647705 -46.408417
v -7.068041 268.647705 -41.190067
v -10.236663 268.781586 -46.408417
v -10.236664 268.647705 -41.190067
v -13.405284 268.647705 -46.408417
v -10.236664 268.781586 -20.316683
v -10.236664 268.647705 -25.535028
v -13.405285 268.781586 -25.535030
v -10.236664 268.781586 -30.753376
v -13.405285 268.647705 -30.753376
v -10.236664 268.781586 -35.971722
v -13.405285 268.647705 -35.971722
v -13.405284 268.647705 -41.190067
v -7.068041 268.647705 -25.535028
v -7.068041 268.781586 -30.753376
v -7.068041 268.647705 -35.971722
v -3.899421 268.647705 -20.316683
v -3.899421 268.647705 -25.535028
v -3.899420 268.781586 -30.753376
v -3.899420 268.781586 -35.971722
v -0.730798 268.781586 -25.535028
v -0.730798 268.647705 -30.753376
v -0.730798 268.781586 -35.971722
v -0.730798 268.647705 -41.190067
v -16.573906 268.781586 -25.535030
v -16.573908 268.781586 -20.316685
v -16.573906 268.647705 -30.753376
v -16.573906 268.781586 -35.971722
v -16.573906 268.647705 -41.190067
v -3.898556 268.759949 -41.190067
v -3.898556 268.759949 -46.409843
v -0.732527 268.759979 -46.411263
v -7.067177 268.626099 -46.409843
v -10.236664 268.626099 -41.190067
v -10.236663 268.759979 -46.411266
v -13.404130 268.626099 -46.410313
v -13.405718 268.759949 -25.532894
v -10.237096 268.626099 -25.534319
v -10.237530 268.760010 -20.312412
v -13.404852 268.626099 -30.752665
v -10.236232 268.759949 -30.754086
v -13.404852 268.626099 -35.971008
v -10.236232 268.759949 -35.969585
v -13.404852 268.626099 -41.189358
v -7.068475 268.626099 -25.535742
v -7.068904 268.760010 -20.312412
v -7.068041 268.759949 -30.754799
v -7.067609 268.626099 -35.969582
v -7.067177 268.626099 -41.190067
v -3.898988 268.626099 -25.535740
v -3.899421 268.626099 -20.314781
v -3.899420 268.759949 -30.754799
v -3.898988 268.759949 -35.971008
v -0.729645 268.759949 -25.535028
v -0.731664 268.626099 -30.754799
v -0.732531 268.759979 -35.971722
v -0.732531 268.626099 -41.190067
v -16.573908 268.759949 -20.316685
v -16.573906 268.759979 -25.532185
v -16.574772 268.626099 -30.751953
v -16.575638 268.759979 -35.971722
v -16.575060 268.626099 -41.188168
v -13.406151 268.759949 -20.315258
v -13.405285 268.781586 -20.316683
v -7.068042 268.781586 -20.316683
vn 0.000000 1.000000 0.000000
vn -0.042200 0.999100 0.000000
vn 0.042200 0.998800 0.025600
vn -0.042200 0.998800 0.025600
vn 0.042200 0.998800 -0.025600
vn -0.042200 0.998800 -0.025600
vn 0.000000 0.999700 -0.025600
vn 0.000000 0.999700 -0.025700
vn 0.000000 0.999700 0.025600
vn 0.000000 0.999700 0.025700
vn 0.000000 -1.000000 0.000000
vn 0.042200 -0.999100 0.000000
vn -0.042200 -0.998800 -0.025600
vn 0.042200 -0.998800 -0.025600
vn -0.042200 -0.998800 0.025600
vn 0.000000 -0.999700 0.025600
vn -0.000000 -0.999700 -0.025600
vn 0.042200 -0.998800 0.025600
vn 0.996800 -0.079900 -0.002000
vn 0.996800 -0.079500 -0.002000
vn -1.000000 0.000000 -0.000000
vn -0.000500 0.000000 1.000000
vn -0.000500 0.065600 0.997800
vn -0.000400 0.065600 0.997800
vn -0.000900 0.065600 0.997800
vn 0.000000 0.194300 0.980900
vn 0.000000 0.194400 0.980900
vn 0.000000 0.194200 0.981000
vn 0.008200 0.193300 0.981100
vn 0.000000 0.130900 -0.991400
vn -0.002800 0.065800 -0.997800
vn -0.001600 0.065600 -0.997800
vn -0.002500 0.065600 -0.997800
vn 0.003200 0.066000 -0.997800
vn -0.005500 0.130700 -0.991400
vn 0.998600 0.053200 -0.001400
vn 0.999200 -0.040000 -0.001200
vn 0.996800 -0.079900 0.002100
vn 0.996800 -0.079900 0.002000
vn 0.853400 0.045700 0.519300
vn 0.852900 0.045400 0.520100
vn -0.998600 0.053100 -0.001500
vn -0.996800 0.079900 0.002000
vn -0.999200 0.039900 -0.000900
vn -0.854900 -0.000100 -0.518800
vn -0.854700 -0.000000 -0.519100
vn 0.000000 0.065700 0.997800
vn 0.000000 0.194500 0.980900
vn 0.004500 0.087700 0.996100
vn -0.000400 0.065700 -0.997800
vn 0.005500 0.130700 -0.991400
vn -0.004000 0.087200 -0.996200
vn 0.999200 -0.040100 0.000600
vn -0.996800 0.079900 -0.002000
vn -0.999200 0.040100 0.001200
g Plane.018_Plane.018_None.001_Plane.018_Plane.018_None.001_tapete.001
usemtl tapete.001
s 1
f 69//59 70//59 71//59
f 70//60 72//60 73//60
f 72//61 74//61 75//61
f 75//62 74//62 76//62
f 77//63 78//63 79//63
f 80//64 81//64 79//64
f 82//60 83//60 81//60
f 75//59 84//59 83//59
f 85//65 78//66 77//65
f 86//67 80//67 78//67
f 86//63 87//63 82//63
f 87//59 73//59 75//59
f 88//59 89//59 85//59
f 90//67 86//67 85//68
f 91//64 87//64 86//64
f 71//60 73//60 87//60
f 92//60 89//60 88//60
f 93//61 90//61 89//61
f 94//59 91//59 90//59
f 94//63 95//63 71//63
f 79//59 96//59 97//59
f 81//65 98//66 96//65
f 83//61 99//61 98//61
f 83//59 84//59 100//59
f 84//59 76//59 100//59
f 101//69 102//69 103//69
f 104//70 102//70 101//70
f 105//71 106//71 104//71
f 107//72 106//72 105//72
f 108//73 109//73 110//73
f 111//72 112//72 109//72
f 113//70 114//70 112//70
f 113//69 115//69 105//69
f 109//74 116//74 117//74
f 112//75 118//75 116//75
f 114//73 119//73 118//73
f 105//69 120//69 119//69
f 116//69 121//69 122//69
f 118//75 123//75 121//75
f 118//76 119//76 124//76
f 120//70 101//70 124//70
f 122//70 121//70 125//70
f 121//71 123//71 126//71
f 123//69 124//69 127//69
f 101//73 128//73 127//73
f 129//69 130//69 108//69
f 131//74 111//74 108//74
f 131//71 132//71 113//71
f 133//69 115//69 113//69
f 133//69 107//69 115//69
f 95//77 128//77 103//78
f 97//79 96//79 130//79
f 97//80 129//80 134//80
f 135//81 134//82 110//83
f 77//84 110//85 117//86
f 88//87 136//87 117//87
f 70//88 69//88 103//88
f 72//89 70//90 102//91
f 72//92 104//92 106//92
f 76//93 74//93 106//93
f 93//94 92//94 125//94
f 93//95 126//95 127//95
f 95//96 94//97 127//97
f 88//98 122//98 125//99
f 100//100 133//100 132//100
f 98//101 99//101 132//101
f 98//102 131//102 130//102
f 76//103 107//103 133//104
f 95//61 69//61 71//61
f 71//60 70//60 73//60
f 73//59 72//59 75//59
f 84//59 75//59 76//59
f 135//59 77//59 79//59
f 78//61 80//61 79//61
f 80//60 82//60 81//60
f 82//64 75//64 83//64
f 136//65 85//65 77//65
f 85//68 86//67 78//67
f 80//59 86//59 82//59
f 82//63 87//63 75//63
f 136//63 88//63 85//63
f 89//68 90//67 85//68
f 90//59 91//59 86//59
f 91//60 71//60 87//60
f 92//64 93//64 89//64
f 93//61 94//61 90//61
f 91//59 94//59 71//59
f 135//59 79//59 97//59
f 79//65 81//65 96//65
f 81//59 83//59 98//59
f 99//63 83//63 100//63
f 128//71 101//71 103//71
f 120//70 104//70 101//70
f 120//69 105//69 104//69
f 115//69 107//69 105//69
f 134//69 108//69 110//69
f 108//73 111//73 109//73
f 111//70 113//70 112//70
f 114//76 113//76 105//76
f 110//74 109//74 117//74
f 109//75 112//75 116//75
f 112//69 114//69 118//69
f 114//73 105//73 119//73
f 117//73 116//73 122//73
f 116//75 118//75 121//75
f 123//69 118//69 124//69
f 119//70 120//70 124//70
f 125//76 121//76 126//76
f 126//71 123//71 127//71
f 124//69 101//69 127//69
f 134//69 129//69 108//69
f 130//74 131//74 108//74
f 111//69 131//69 113//69
f 132//73 133//73 113//73
f 69//78 95//77 103//78
f 129//79 97//79 130//79
f 135//81 97//105 134//82
f 77//84 135//106 110//85
f 136//86 77//84 117//86
f 122//107 88//107 117//107
f 102//91 70//90 103//108
f 104//89 72//89 102//91
f 74//109 72//109 106//109
f 107//110 76//110 106//110
f 126//111 93//111 125//111
f 94//77 93//77 127//77
f 128//96 95//96 127//97
f 92//99 88//98 125//99
f 99//112 100//112 132//112
f 131//113 98//113 132//113
f 96//79 98//79 130//79
f 100//104 76//103 133//104
o Plane.018_Plane.018_None
v 10.139891 268.781586 -7.860936
v 7.792413 268.781586 -7.860937
v 7.792413 268.781586 -5.513459
v 5.444936 268.647705 -7.860937
v 5.444936 268.647705 -5.513460
v 3.097458 268.781586 -7.860937
v 3.097458 268.647705 -5.513460
v 0.749981 268.647705 -7.860937
v 3.097458 268.781586 3.876451
v 3.097458 268.647705 1.528973
v 0.749980 268.781586 1.528972
v 3.097458 268.781586 -0.818504
v 0.749980 268.647705 -0.818504
v 3.097458 268.781586 -3.165982
v 0.749980 268.647705 -3.165982
v 0.749981 268.647705 -5.513460
v 5.444936 268.647705 1.528973
v 5.444936 268.781586 -0.818504
v 5.444936 268.647705 -3.165982
v 7.792413 268.647705 3.876451
v 7.792413 268.647705 1.528973
v 7.792413 268.781586 -0.818504
v 7.792413 268.781586 -3.165982
v 10.139891 268.781586 1.528973
v 10.139891 268.647705 -0.818504
v 10.139891 268.781586 -3.165982
v 10.139891 268.647705 -5.513459
v -1.597497 268.781586 1.528972
v -1.597497 268.781586 3.876450
v -1.597497 268.647705 -0.818505
v -1.597497 268.781586 -3.165982
v -1.597497 268.647705 -5.513460
v 7.793053 268.759949 -5.513459
v 7.793053 268.759949 -7.861578
v 10.138610 268.759979 -7.862217
v 5.445576 268.626099 -7.861578
v 3.097458 268.626099 -5.513460
v 3.097458 268.759979 -7.862219
v 0.750836 268.626099 -7.861791
v 0.749660 268.759949 1.529934
v 3.097138 268.626099 1.529293
v 3.096816 268.760010 3.878371
v 0.750301 268.626099 -0.818185
v 3.097778 268.759949 -0.818824
v 0.750301 268.626099 -3.165661
v 3.097778 268.759949 -3.165021
v 0.750301 268.626099 -5.513140
v 5.444614 268.626099 1.528652
v 5.444296 268.760010 3.878372
v 5.444936 268.759949 -0.819144
v 5.445256 268.626099 -3.165020
v 5.445576 268.626099 -5.513460
v 7.792733 268.626099 1.528653
v 7.792413 268.626099 3.877305
v 7.792413 268.759949 -0.819145
v 7.792733 268.759949 -3.165661
v 10.140745 268.759949 1.528973
v 10.139249 268.626099 -0.819145
v 10.138607 268.759979 -3.165982
v 10.138607 268.626099 -5.513459
v -1.597497 268.759949 3.876450
v -1.597497 268.759979 1.530253
v -1.598138 268.626099 -0.817865
v -1.598779 268.759979 -3.165982
v -1.598351 268.626099 -5.512605
v 0.749340 268.759949 3.877091
v 0.749980 268.781586 3.876451
v 5.444935 268.781586 3.876451
vn 0.000000 1.000000 0.000000
vn -0.056900 0.998400 0.000000
vn 0.056800 0.996800 0.056900
vn -0.056800 0.996800 0.056900
vn 0.056800 0.996800 -0.056800
vn -0.056800 0.996800 -0.056800
vn 0.000000 0.998400 -0.056900
vn 0.000000 0.998400 -0.057000
vn 0.000000 0.998400 0.056900
vn 0.056800 0.996800 -0.056900
vn 0.000000 0.998400 0.057000
vn 0.056800 0.996800 0.056800
vn 0.000000 -1.000000 0.000000
vn 0.056900 -0.998400 0.000000
vn -0.056800 -0.996800 -0.056800
vn 0.056900 -0.996800 -0.056800
vn -0.056800 -0.996800 0.056800
vn 0.056800 -0.996800 -0.056800
vn 0.000000 -0.998400 0.056900
vn -0.000000 -0.998400 -0.056900
vn -0.056800 -0.996800 0.056900
vn 0.056800 -0.996800 0.056900
vn -0.056900 -0.996800 0.056800
vn 0.998200 -0.059200 -0.003400
vn 0.998200 -0.059000 -0.003400
vn -1.000000 0.000000 -0.000000
vn -0.000300 0.000000 1.000000
vn -0.000300 0.029500 0.999600
vn -0.000500 0.029600 0.999600
vn 0.000000 0.088800 0.996100
vn 0.000000 0.088900 0.996000
vn 0.005000 0.088500 0.996100
vn 0.000000 0.059200 -0.998200
vn -0.001700 0.029600 -0.999600
vn -0.001000 0.029600 -0.999600
vn -0.001800 0.029600 -0.999600
vn 0.002000 0.029800 -0.999600
vn -0.003400 0.059300 -0.998200
vn 0.999200 0.039400 -0.002300
vn 0.999600 -0.029700 -0.002000
vn 0.998200 -0.059300 0.003400
vn 0.705700 0.028000 0.707900
vn 0.705200 0.027900 0.708400
vn -0.999200 0.039400 -0.002400
vn -0.998200 0.059200 0.003400
vn -0.999600 0.029600 -0.001400
vn -0.706900 -0.000000 -0.707300
vn -0.707500 -0.000000 -0.706700
vn -0.056800 0.996800 -0.056900
vn -0.056900 -0.996800 -0.056800
vn 0.056800 -0.996800 0.056800
vn 0.998300 -0.059000 -0.003400
vn -0.000000 0.029500 0.999600
vn 0.002700 0.039500 0.999200
vn -0.000300 0.029600 -0.999600
vn 0.003400 0.059300 -0.998200
vn -0.002400 0.039400 -0.999200
vn 0.999600 -0.029700 0.001100
vn 0.998200 -0.059300 -0.003400
vn -0.998200 0.059200 -0.003400
vn -0.999600 0.029700 0.002000
g Plane.018_Plane.018_None_Plane.018_Plane.018_None_tapete.001
usemtl tapete.001
s 1
f 137//114 138//114 139//114
f 138//115 140//115 141//115
f 140//116 142//116 143//116
f 143//117 142//117 144//117
f 145//118 146//118 147//118
f 148//119 149//119 147//119
f 150//115 151//115 149//115
f 143//114 152//114 151//114
f 153//120 146//121 145//120
f 154//122 148//122 146//122
f 154//118 155//118 150//123
f 155//114 141//114 143//114
f 156//114 157//114 153//114
f 158//122 154//122 153//124
f 159//119 155//119 154//119
f 139//115 141//115 155//115
f 160//115 157//115 156//115
f 161//125 158//116 157//116
f 162//114 159//114 158//114
f 162//118 163//118 139//118
f 147//114 164//114 165//114
f 149//120 166//120 164//120
f 151//116 167//116 166//116
f 151//114 152//114 168//114
f 152//114 144//114 168//114
f 169//126 170//126 171//126
f 172//127 170//127 169//127
f 173//128 174//128 172//128
f 175//129 174//129 173//129
f 176//130 177//130 178//130
f 179//131 180//131 177//131
f 181//127 182//127 180//127
f 181//126 183//126 173//126
f 177//132 184//132 185//132
f 180//133 186//133 184//133
f 182//130 187//130 186//134
f 173//126 188//126 187//126
f 184//126 189//126 190//126
f 186//133 191//133 189//133
f 186//135 187//135 192//135
f 188//127 169//127 192//127
f 190//127 189//127 193//127
f 189//128 191//128 194//128
f 191//126 192//126 195//126
f 169//136 196//136 195//136
f 197//126 198//126 176//126
f 199//132 179//132 176//132
f 199//128 200//128 181//128
f 201//126 183//126 181//126
f 201//126 175//126 183//126
f 163//137 196//137 171//138
f 165//139 164//139 198//139
f 165//140 197//140 202//140
f 203//141 202//141 178//142
f 145//143 178//143 185//144
f 156//145 204//145 185//145
f 138//146 137//146 171//146
f 140//147 138//148 170//149
f 140//150 172//150 174//150
f 144//151 142//151 174//151
f 161//152 160//152 193//152
f 161//153 194//153 195//153
f 163//154 162//154 195//154
f 156//155 190//155 193//156
f 168//157 201//157 200//157
f 166//158 167//158 200//158
f 166//159 199//159 198//159
f 144//160 175//160 201//161
f 163//125 137//125 139//125
f 139//115 138//115 141//115
f 141//114 140//114 143//114
f 152//114 143//114 144//114
f 203//114 145//114 147//114
f 146//125 148//125 147//125
f 148//115 150//115 149//115
f 150//162 143//162 151//162
f 204//120 153//120 145//120
f 153//124 154//122 146//122
f 148//114 154//114 150//114
f 150//123 155//118 143//123
f 204//123 156//123 153//123
f 157//122 158//122 153//124
f 158//114 159//114 154//114
f 159//115 139//115 155//115
f 160//162 161//162 157//162
f 161//125 162//125 158//116
f 159//114 162//114 139//114
f 203//114 147//114 165//114
f 147//120 149//120 164//120
f 149//114 151//114 166//114
f 167//123 151//123 168//123
f 196//163 169//163 171//163
f 188//127 172//127 169//127
f 188//126 173//126 172//126
f 183//126 175//126 173//126
f 202//126 176//126 178//126
f 176//130 179//130 177//130
f 179//127 181//127 180//127
f 182//164 181//164 173//164
f 178//132 177//132 185//132
f 177//133 180//133 184//133
f 180//126 182//126 186//126
f 182//130 173//130 187//130
f 185//130 184//130 190//130
f 184//133 186//133 189//133
f 191//126 186//126 192//126
f 187//127 188//127 192//127
f 193//164 189//164 194//164
f 194//128 191//128 195//128
f 192//126 169//126 195//126
f 202//126 197//126 176//126
f 198//132 199//132 176//132
f 179//126 199//126 181//126
f 200//134 201//134 181//134
f 137//165 163//137 171//138
f 197//139 165//139 198//139
f 203//141 165//166 202//141
f 145//143 203//144 178//143
f 204//144 145//143 185//144
f 190//167 156//167 185//167
f 170//149 138//148 171//168
f 172//147 140//147 170//149
f 142//169 140//169 174//169
f 175//170 144//170 174//170
f 194//171 161//171 193//171
f 162//172 161//172 195//172
f 196//154 163//154 195//154
f 160//156 156//155 193//156
f 167//173 168//173 200//173
f 199//174 166//174 200//174
f 164//139 166//139 198//139
f 168//161 144//160 201//161
