# Blender v2.76 (sub 0) OBJ File: 'predio.blend'
# www.blender.org
mtllib main_hall_generic.mtl
o Plane.001_Plane.002
v -17.939209 -0.395829 -32.918686
v 18.338959 -0.395829 -32.918686
v -17.939209 3.083646 -32.918686
v 18.338959 3.083646 -32.918686
v -5.846486 -0.395829 -28.328331
v 6.246236 -0.395829 -28.328331
v 6.246236 3.083646 -28.328331
v -5.846486 3.083646 -28.328331
v 8.118502 -0.395829 -29.858450
v 14.308051 -0.395829 -29.844149
v 14.308051 3.083646 -29.844149
v 8.118502 3.083646 -29.858450
v -7.718751 3.083646 -29.858450
v -13.908301 3.083646 -29.844151
v -13.908301 -0.395829 -29.844149
v -7.718751 -0.395829 -29.858450
v -17.758293 -0.395829 -32.919407
v 18.158043 -0.395829 -32.919407
v -17.758293 3.083646 -32.919407
v 18.158043 3.083646 -32.919407
v -5.722618 -0.395829 -28.335636
v 6.122367 -0.395829 -28.335636
v 6.122367 3.083646 -28.335636
v -5.722618 3.083646 -28.335636
v 7.997433 -0.395829 -29.865896
v 14.187310 -0.395829 -29.851612
v 14.187310 3.083646 -29.851612
v 7.997433 3.083646 -29.865896
v -7.597683 3.083646 -29.865896
v -13.787560 3.083646 -29.851612
v -13.787560 -0.395829 -29.851612
v -7.597683 -0.395829 -29.865896
vn 0.606500 0.000000 0.795100
vn -0.632800 0.000000 0.774300
vn 0.000000 0.000000 1.000000
vn 0.632800 0.000000 0.774300
vn -0.002300 0.000000 1.000000
vn -0.606500 0.000000 0.795100
vn 0.002300 0.000000 1.000000
vn -0.611400 0.000000 -0.791300
vn 0.632300 0.000000 -0.774700
vn 0.000000 0.000000 -1.000000
vn -0.632300 0.000000 -0.774700
vn 0.002300 0.000000 -1.000000
vn 0.611400 0.000000 -0.791300
vn -0.002300 0.000000 -1.000000
vn -0.004000 0.000000 -1.000000
vn 0.000000 -1.000000 0.000000
vn 0.004000 0.000000 -1.000000
vn 0.000000 1.000000 0.000000
usemtl RingMat.001
s off
f 10//1 2//1 4//1 11//1
f 16//2 5//2 8//2 13//2
f 5//3 6//3 7//3 8//3
f 6//4 9//4 12//4 7//4
f 9//5 10//5 11//5 12//5
f 1//6 15//6 14//6 3//6
f 15//7 16//7 13//7 14//7
f 27//8 20//8 18//8 26//8
f 29//9 24//9 21//9 32//9
f 24//10 23//10 22//10 21//10
f 23//11 28//11 25//11 22//11
f 28//12 27//12 26//12 25//12
f 19//13 30//13 31//13 17//13
f 30//14 29//14 32//14 31//14
f 1//15 3//15 19//15 17//15
f 2//16 10//16 26//16 18//16
f 4//17 2//17 18//17 20//17
f 3//18 14//18 30//18 19//18
f 5//16 16//16 32//16 21//16
f 6//16 5//16 21//16 22//16
f 7//18 12//18 28//18 23//18
f 8//18 7//18 23//18 24//18
f 9//16 6//16 22//16 25//16
f 10//16 9//16 25//16 26//16
f 11//18 4//18 20//18 27//18
f 12//18 11//18 27//18 28//18
f 13//18 8//18 24//18 29//18
f 14//18 13//18 29//18 30//18
f 15//16 1//16 17//16 31//16
f 16//16 15//16 31//16 32//16
