# Blender v2.76 (sub 0) OBJ File: 'predio.blend'
# www.blender.org
mtllib main_insidewindow.mtl
o Plane.003
v -17.229374 2.485091 -7.586888
v -17.229374 0.485091 -7.586888
v -17.229374 2.485091 -8.728125
v -17.229374 0.485091 -8.728125
v -17.229374 2.485091 -8.917977
v -17.229374 0.485091 -8.917977
v -17.229374 2.485091 -10.059215
v -17.229374 0.485091 -10.059215
v -17.229374 2.485091 -10.230725
v -17.229374 0.485091 -10.230725
v -17.229374 2.485091 -11.371963
v -17.229374 0.485091 -11.371963
v -17.229374 2.485091 -11.561815
v -17.229374 0.485091 -11.561815
v -17.229374 2.485091 -12.703052
v -17.229374 0.485091 -12.703052
v -17.229374 2.485091 -12.852354
v -17.229374 0.485091 -12.852354
v -17.229374 2.485091 -13.993590
v -17.229374 0.485091 -13.993590
v -17.229374 2.485091 -14.183443
v -17.229374 0.485091 -14.183443
v -17.229374 2.485091 -15.324679
v -17.229374 0.485091 -15.324679
v -17.229374 2.485091 -15.496191
v -17.229374 0.485091 -15.496191
v -17.229374 2.485091 -16.637428
v -17.229374 0.485091 -16.637428
v -17.229374 2.485091 -16.827280
v -17.229374 0.485091 -16.827280
v -17.229374 2.485091 -17.968515
v -17.229374 0.485091 -17.968515
v -17.229374 2.485091 -18.158300
v -17.229374 0.485091 -18.158300
v -17.229374 2.485091 -19.299538
v -17.229374 0.485091 -19.299538
v -17.229374 2.485091 -19.489389
v -17.229374 0.485091 -19.489389
v -17.229374 2.485091 -20.630627
v -17.229374 0.485091 -20.630627
v -17.229374 2.485091 -20.802137
v -17.229374 0.485091 -20.802137
v -17.229374 2.485091 -21.943375
v -17.229374 0.485091 -21.943375
v -17.229374 2.485091 -22.133226
v -17.229374 0.485091 -22.133226
v -17.229374 2.485091 -23.274464
v -17.229374 0.485091 -23.274464
v -17.229374 2.485091 -23.423765
v -17.229374 0.485091 -23.423765
v -17.229374 2.485091 -24.565002
v -17.229374 0.485091 -24.565002
v -17.229374 2.485091 -24.754854
v -17.229374 0.485091 -24.754854
v -17.229374 2.485091 -25.896091
v -17.229374 0.485091 -25.896091
v -17.229374 2.485091 -26.067602
v -17.229374 0.485091 -26.067602
v -17.229374 2.485091 -27.208839
v -17.229374 0.485091 -27.208839
v -17.229374 2.485091 -27.398691
v -17.229374 0.485091 -27.398691
v -17.229374 2.485091 -28.539928
v -17.229374 0.485091 -28.539928
v 17.221497 2.485091 -7.586888
v 17.221497 0.485091 -7.586888
v 17.221497 2.485091 -8.728125
v 17.221497 0.485091 -8.728125
v 17.221497 2.485091 -8.917977
v 17.221497 0.485091 -8.917977
v 17.221497 2.485091 -10.059215
v 17.221497 0.485091 -10.059215
v 17.221497 2.485091 -10.230725
v 17.221497 0.485091 -10.230725
v 17.221497 2.485091 -11.371963
v 17.221497 0.485091 -11.371963
v 17.221497 2.485091 -11.561815
v 17.221497 0.485091 -11.561815
v 17.221497 2.485091 -12.703052
v 17.221497 0.485091 -12.703052
v 17.221497 2.485091 -12.852354
v 17.221497 0.485091 -12.852354
v 17.221497 2.485091 -13.993590
v 17.221497 0.485091 -13.993590
v 17.221497 2.485091 -14.183443
v 17.221497 0.485091 -14.183443
v 17.221497 2.485091 -15.324679
v 17.221497 0.485091 -15.324679
v 17.221497 2.485091 -15.496191
v 17.221497 0.485091 -15.496191
v 17.221497 2.485091 -16.637428
v 17.221497 0.485091 -16.637428
v 17.221497 2.485091 -16.827280
v 17.221497 0.485091 -16.827280
v 17.221497 2.485091 -17.968515
v 17.221497 0.485091 -17.968515
v 17.221497 2.485091 -18.158300
v 17.221497 0.485091 -18.158300
v 17.221497 2.485091 -19.299538
v 17.221497 0.485091 -19.299538
v 17.221497 2.485091 -19.489389
v 17.221497 0.485091 -19.489389
v 17.221497 2.485091 -20.630627
v 17.221497 0.485091 -20.630627
v 17.221497 2.485091 -20.802137
v 17.221497 0.485091 -20.802137
v 17.221497 2.485091 -21.943375
v 17.221497 0.485091 -21.943375
v 17.221497 2.485091 -22.133226
v 17.221497 0.485091 -22.133226
v 17.221497 2.485091 -23.274464
v 17.221497 0.485091 -23.274464
v 17.221497 2.485091 -23.423765
v 17.221497 0.485091 -23.423765
v 17.221497 2.485091 -24.565002
v 17.221497 0.485091 -24.565002
v 17.221497 2.485091 -24.754854
v 17.221497 0.485091 -24.754854
v 17.221497 2.485091 -25.896091
v 17.221497 0.485091 -25.896091
v 17.221497 2.485091 -26.067602
v 17.221497 0.485091 -26.067602
v 17.221497 2.485091 -27.208839
v 17.221497 0.485091 -27.208839
v 17.221497 2.485091 -27.398691
v 17.221497 0.485091 -27.398691
v 17.221497 2.485091 -28.539928
v 17.221497 0.485091 -28.539928
v -5.400606 2.545993 -28.199902
v -5.400606 0.545993 -28.199902
v 5.661739 2.545993 -28.199902
v 5.661739 0.545993 -28.199902
v -5.083994 2.545993 -28.127224
v -5.083994 0.545993 -28.127224
v -4.420679 2.545993 -28.127224
v -4.420679 0.545993 -28.127224
v -4.070235 2.545992 -28.127224
v -4.070235 0.545993 -28.127224
v -3.406920 2.545993 -28.127224
v -3.406920 0.545993 -28.127224
v -3.056477 2.545992 -28.127224
v -3.056477 0.545993 -28.127224
v -2.393162 2.545992 -28.127224
v -2.393162 0.545993 -28.127224
v 4.743258 2.545992 -28.127224
v 4.743258 0.545993 -28.127224
v 5.406572 2.545992 -28.127224
v 5.406572 0.545993 -28.127224
v 3.812256 2.545992 -28.127224
v 3.812256 0.545993 -28.127224
v 4.475571 2.545993 -28.127224
v 4.475571 0.545993 -28.127224
v 2.860565 2.545993 -28.127224
v 2.860565 0.545993 -28.127224
v 3.523880 2.545993 -28.127224
v 3.523880 0.545993 -28.127224
v -17.302374 2.485091 -7.586888
v -17.302374 0.485091 -7.586888
v -17.302374 2.485091 -8.728125
v -17.302374 0.485091 -8.728125
v -17.302374 2.485091 -8.917977
v -17.302374 0.485091 -8.917977
v -17.302374 2.485091 -10.059215
v -17.302374 0.485091 -10.059215
v -17.302374 2.485091 -10.230725
v -17.302374 0.485091 -10.230725
v -17.302374 2.485091 -11.371963
v -17.302374 0.485091 -11.371963
v -17.302374 2.485091 -11.561815
v -17.302374 0.485091 -11.561815
v -17.302374 2.485091 -12.703052
v -17.302374 0.485091 -12.703052
v -17.302374 2.485091 -12.852354
v -17.302374 0.485091 -12.852354
v -17.302374 2.485091 -13.993590
v -17.302374 0.485091 -13.993590
v -17.302374 2.485091 -14.183443
v -17.302374 0.485091 -14.183443
v -17.302374 2.485091 -15.324679
v -17.302374 0.485091 -15.324679
v -17.302374 2.485091 -15.496191
v -17.302374 0.485091 -15.496191
v -17.302374 2.485091 -16.637428
v -17.302374 0.485091 -16.637428
v -17.302374 2.485091 -16.827280
v -17.302374 0.485091 -16.827280
v -17.302374 2.485091 -17.968515
v -17.302374 0.485091 -17.968515
v -17.302374 2.485091 -18.158300
v -17.302374 0.485091 -18.158300
v -17.302374 2.485091 -19.299538
v -17.302374 0.485091 -19.299538
v -17.302374 2.485091 -19.489389
v -17.302374 0.485091 -19.489389
v -17.302374 2.485091 -20.630627
v -17.302374 0.485091 -20.630627
v -17.302374 2.485091 -20.802137
v -17.302374 0.485091 -20.802137
v -17.302374 2.485091 -21.943375
v -17.302374 0.485091 -21.943375
v -17.302374 2.485091 -22.133226
v -17.302374 0.485091 -22.133226
v -17.302374 2.485091 -23.274464
v -17.302374 0.485091 -23.274464
v -17.302374 2.485091 -23.423765
v -17.302374 0.485091 -23.423765
v -17.302374 2.485091 -24.565002
v -17.302374 0.485091 -24.565002
v -17.302374 2.485091 -24.754854
v -17.302374 0.485091 -24.754854
v -17.302374 2.485091 -25.896091
v -17.302374 0.485091 -25.896091
v -17.302374 2.485091 -26.067602
v -17.302374 0.485091 -26.067602
v -17.302374 2.485091 -27.208839
v -17.302374 0.485091 -27.208839
v -17.302374 2.485091 -27.398691
v -17.302374 0.485091 -27.398691
v -17.302374 2.485091 -28.539928
v -17.302374 0.485091 -28.539928
v 17.148495 2.485090 -7.586888
v 17.148495 0.485091 -7.586888
v 17.148495 2.485090 -8.728125
v 17.148495 0.485091 -8.728125
v 17.148495 2.485090 -8.917977
v 17.148495 0.485091 -8.917977
v 17.148495 2.485090 -10.059215
v 17.148495 0.485091 -10.059215
v 17.148495 2.485090 -10.230725
v 17.148495 0.485091 -10.230725
v 17.148495 2.485090 -11.371963
v 17.148495 0.485091 -11.371963
v 17.148495 2.485090 -11.561815
v 17.148495 0.485091 -11.561815
v 17.148495 2.485090 -12.703052
v 17.148495 0.485091 -12.703052
v 17.148495 2.485090 -12.852354
v 17.148495 0.485091 -12.852354
v 17.148495 2.485090 -13.993590
v 17.148495 0.485091 -13.993590
v 17.148495 2.485090 -14.183443
v 17.148495 0.485091 -14.183443
v 17.148495 2.485090 -15.324679
v 17.148495 0.485091 -15.324679
v 17.148495 2.485090 -15.496191
v 17.148495 0.485091 -15.496191
v 17.148495 2.485090 -16.637428
v 17.148495 0.485091 -16.637428
v 17.148495 2.485090 -16.827280
v 17.148495 0.485091 -16.827280
v 17.148495 2.485090 -17.968515
v 17.148495 0.485091 -17.968515
v 17.148495 2.485090 -18.158300
v 17.148495 0.485091 -18.158300
v 17.148495 2.485090 -19.299538
v 17.148495 0.485091 -19.299538
v 17.148495 2.485090 -19.489389
v 17.148495 0.485091 -19.489389
v 17.148495 2.485090 -20.630627
v 17.148495 0.485091 -20.630627
v 17.148495 2.485090 -20.802137
v 17.148495 0.485091 -20.802137
v 17.148495 2.485090 -21.943375
v 17.148495 0.485091 -21.943375
v 17.148495 2.485090 -22.133226
v 17.148495 0.485091 -22.133226
v 17.148495 2.485090 -23.274464
v 17.148495 0.485091 -23.274464
v 17.148495 2.485090 -23.423765
v 17.148495 0.485091 -23.423765
v 17.148495 2.485090 -24.565002
v 17.148495 0.485091 -24.565002
v 17.148495 2.485090 -24.754854
v 17.148495 0.485091 -24.754854
v 17.148495 2.485090 -25.896091
v 17.148495 0.485091 -25.896091
v 17.148495 2.485090 -26.067602
v 17.148495 0.485091 -26.067602
v 17.148495 2.485090 -27.208839
v 17.148495 0.485091 -27.208839
v 17.148495 2.485090 -27.398691
v 17.148495 0.485091 -27.398691
v 17.148495 2.485090 -28.539928
v 17.148495 0.485091 -28.539928
v -5.400606 2.545993 -28.241558
v -5.400606 0.545993 -28.241558
v 5.661739 2.545993 -28.241558
v 5.661739 0.545993 -28.241558
v -5.083994 2.545993 -28.168880
v -5.083994 0.545993 -28.168880
v -4.420679 2.545993 -28.168880
v -4.420679 0.545993 -28.168880
v -4.070235 2.545992 -28.168880
v -4.070235 0.545993 -28.168880
v -3.406920 2.545993 -28.168880
v -3.406920 0.545993 -28.168880
v -3.056477 2.545992 -28.168880
v -3.056477 0.545993 -28.168880
v -2.393162 2.545992 -28.168880
v -2.393162 0.545993 -28.168880
v 4.743258 2.545992 -28.168880
v 4.743258 0.545993 -28.168880
v 5.406572 2.545992 -28.168880
v 5.406572 0.545993 -28.168880
v 3.812256 2.545992 -28.168880
v 3.812256 0.545993 -28.168880
v 4.475571 2.545993 -28.168880
v 4.475571 0.545993 -28.168880
v 2.860565 2.545993 -28.168880
v 2.860565 0.545993 -28.168880
v 3.523880 2.545993 -28.168880
v 3.523880 0.545993 -28.168880
vn 1.000000 0.000000 0.000000
vn 0.000000 0.000000 1.000000
vn -1.000000 0.000000 0.000000
vn 0.000000 0.000000 -1.000000
vn 0.000000 1.000000 0.000000
vn 0.000000 -1.000000 0.000000
usemtl glass
s off
f 1//1 2//1 4//1 3//1
f 5//1 6//1 8//1 7//1
f 9//1 10//1 12//1 11//1
f 13//1 14//1 16//1 15//1
f 17//1 18//1 20//1 19//1
f 21//1 22//1 24//1 23//1
f 25//1 26//1 28//1 27//1
f 29//1 30//1 32//1 31//1
f 33//1 34//1 36//1 35//1
f 37//1 38//1 40//1 39//1
f 41//1 42//1 44//1 43//1
f 45//1 46//1 48//1 47//1
f 49//1 50//1 52//1 51//1
f 53//1 54//1 56//1 55//1
f 57//1 58//1 60//1 59//1
f 61//1 62//1 64//1 63//1
f 65//1 66//1 68//1 67//1
f 69//1 70//1 72//1 71//1
f 73//1 74//1 76//1 75//1
f 77//1 78//1 80//1 79//1
f 81//1 82//1 84//1 83//1
f 85//1 86//1 88//1 87//1
f 89//1 90//1 92//1 91//1
f 93//1 94//1 96//1 95//1
f 97//1 98//1 100//1 99//1
f 101//1 102//1 104//1 103//1
f 105//1 106//1 108//1 107//1
f 109//1 110//1 112//1 111//1
f 113//1 114//1 116//1 115//1
f 117//1 118//1 120//1 119//1
f 121//1 122//1 124//1 123//1
f 125//1 126//1 128//1 127//1
f 129//2 130//2 132//2 131//2
f 133//2 134//2 136//2 135//2
f 137//2 138//2 140//2 139//2
f 141//2 142//2 144//2 143//2
f 145//2 146//2 148//2 147//2
f 149//2 150//2 152//2 151//2
f 153//2 154//2 156//2 155//2
f 159//3 160//3 158//3 157//3
f 163//3 164//3 162//3 161//3
f 167//3 168//3 166//3 165//3
f 171//3 172//3 170//3 169//3
f 175//3 176//3 174//3 173//3
f 179//3 180//3 178//3 177//3
f 183//3 184//3 182//3 181//3
f 187//3 188//3 186//3 185//3
f 191//3 192//3 190//3 189//3
f 195//3 196//3 194//3 193//3
f 199//3 200//3 198//3 197//3
f 203//3 204//3 202//3 201//3
f 207//3 208//3 206//3 205//3
f 211//3 212//3 210//3 209//3
f 215//3 216//3 214//3 213//3
f 219//3 220//3 218//3 217//3
f 223//3 224//3 222//3 221//3
f 227//3 228//3 226//3 225//3
f 231//3 232//3 230//3 229//3
f 235//3 236//3 234//3 233//3
f 239//3 240//3 238//3 237//3
f 243//3 244//3 242//3 241//3
f 247//3 248//3 246//3 245//3
f 251//3 252//3 250//3 249//3
f 255//3 256//3 254//3 253//3
f 259//3 260//3 258//3 257//3
f 263//3 264//3 262//3 261//3
f 267//3 268//3 266//3 265//3
f 271//3 272//3 270//3 269//3
f 275//3 276//3 274//3 273//3
f 279//3 280//3 278//3 277//3
f 283//3 284//3 282//3 281//3
f 287//4 288//4 286//4 285//4
f 291//4 292//4 290//4 289//4
f 295//4 296//4 294//4 293//4
f 299//4 300//4 298//4 297//4
f 303//4 304//4 302//4 301//4
f 307//4 308//4 306//4 305//4
f 311//4 312//4 310//4 309//4
f 1//5 3//5 159//5 157//5
f 2//2 1//2 157//2 158//2
f 4//6 2//6 158//6 160//6
f 3//4 4//4 160//4 159//4
f 5//5 7//5 163//5 161//5
f 6//2 5//2 161//2 162//2
f 8//6 6//6 162//6 164//6
f 7//4 8//4 164//4 163//4
f 9//5 11//5 167//5 165//5
f 10//2 9//2 165//2 166//2
f 12//6 10//6 166//6 168//6
f 11//4 12//4 168//4 167//4
f 13//5 15//5 171//5 169//5
f 14//2 13//2 169//2 170//2
f 16//6 14//6 170//6 172//6
f 15//4 16//4 172//4 171//4
f 17//5 19//5 175//5 173//5
f 18//2 17//2 173//2 174//2
f 20//6 18//6 174//6 176//6
f 19//4 20//4 176//4 175//4
f 21//5 23//5 179//5 177//5
f 22//2 21//2 177//2 178//2
f 24//6 22//6 178//6 180//6
f 23//4 24//4 180//4 179//4
f 25//5 27//5 183//5 181//5
f 26//2 25//2 181//2 182//2
f 28//6 26//6 182//6 184//6
f 27//4 28//4 184//4 183//4
f 29//5 31//5 187//5 185//5
f 30//2 29//2 185//2 186//2
f 32//6 30//6 186//6 188//6
f 31//4 32//4 188//4 187//4
f 33//5 35//5 191//5 189//5
f 34//2 33//2 189//2 190//2
f 36//6 34//6 190//6 192//6
f 35//4 36//4 192//4 191//4
f 37//5 39//5 195//5 193//5
f 38//2 37//2 193//2 194//2
f 40//6 38//6 194//6 196//6
f 39//4 40//4 196//4 195//4
f 41//5 43//5 199//5 197//5
f 42//2 41//2 197//2 198//2
f 44//6 42//6 198//6 200//6
f 43//4 44//4 200//4 199//4
f 45//5 47//5 203//5 201//5
f 46//2 45//2 201//2 202//2
f 48//6 46//6 202//6 204//6
f 47//4 48//4 204//4 203//4
f 49//5 51//5 207//5 205//5
f 50//2 49//2 205//2 206//2
f 52//6 50//6 206//6 208//6
f 51//4 52//4 208//4 207//4
f 53//5 55//5 211//5 209//5
f 54//2 53//2 209//2 210//2
f 56//6 54//6 210//6 212//6
f 55//4 56//4 212//4 211//4
f 57//5 59//5 215//5 213//5
f 58//2 57//2 213//2 214//2
f 60//6 58//6 214//6 216//6
f 59//4 60//4 216//4 215//4
f 61//5 63//5 219//5 217//5
f 62//2 61//2 217//2 218//2
f 64//6 62//6 218//6 220//6
f 63//4 64//4 220//4 219//4
f 65//5 67//5 223//5 221//5
f 66//2 65//2 221//2 222//2
f 68//6 66//6 222//6 224//6
f 67//4 68//4 224//4 223//4
f 69//5 71//5 227//5 225//5
f 70//2 69//2 225//2 226//2
f 72//6 70//6 226//6 228//6
f 71//4 72//4 228//4 227//4
f 73//5 75//5 231//5 229//5
f 74//2 73//2 229//2 230//2
f 76//6 74//6 230//6 232//6
f 75//4 76//4 232//4 231//4
f 77//5 79//5 235//5 233//5
f 78//2 77//2 233//2 234//2
f 80//6 78//6 234//6 236//6
f 79//4 80//4 236//4 235//4
f 81//5 83//5 239//5 237//5
f 82//2 81//2 237//2 238//2
f 84//6 82//6 238//6 240//6
f 83//4 84//4 240//4 239//4
f 85//5 87//5 243//5 241//5
f 86//2 85//2 241//2 242//2
f 88//6 86//6 242//6 244//6
f 87//4 88//4 244//4 243//4
f 89//5 91//5 247//5 245//5
f 90//2 89//2 245//2 246//2
f 92//6 90//6 246//6 248//6
f 91//4 92//4 248//4 247//4
f 93//5 95//5 251//5 249//5
f 94//2 93//2 249//2 250//2
f 96//6 94//6 250//6 252//6
f 95//4 96//4 252//4 251//4
f 97//5 99//5 255//5 253//5
f 98//2 97//2 253//2 254//2
f 100//6 98//6 254//6 256//6
f 99//4 100//4 256//4 255//4
f 101//5 103//5 259//5 257//5
f 102//2 101//2 257//2 258//2
f 104//6 102//6 258//6 260//6
f 103//4 104//4 260//4 259//4
f 105//5 107//5 263//5 261//5
f 106//2 105//2 261//2 262//2
f 108//6 106//6 262//6 264//6
f 107//4 108//4 264//4 263//4
f 109//5 111//5 267//5 265//5
f 110//2 109//2 265//2 266//2
f 112//6 110//6 266//6 268//6
f 111//4 112//4 268//4 267//4
f 113//5 115//5 271//5 269//5
f 114//2 113//2 269//2 270//2
f 116//6 114//6 270//6 272//6
f 115//4 116//4 272//4 271//4
f 117//5 119//5 275//5 273//5
f 118//2 117//2 273//2 274//2
f 120//6 118//6 274//6 276//6
f 119//4 120//4 276//4 275//4
f 121//5 123//5 279//5 277//5
f 122//2 121//2 277//2 278//2
f 124//6 122//6 278//6 280//6
f 123//4 124//4 280//4 279//4
f 125//5 127//5 283//5 281//5
f 126//2 125//2 281//2 282//2
f 128//6 126//6 282//6 284//6
f 127//4 128//4 284//4 283//4
f 129//5 131//5 287//5 285//5
f 130//3 129//3 285//3 286//3
f 132//6 130//6 286//6 288//6
f 131//1 132//1 288//1 287//1
f 133//5 135//5 291//5 289//5
f 134//3 133//3 289//3 290//3
f 136//6 134//6 290//6 292//6
f 135//1 136//1 292//1 291//1
f 137//5 139//5 295//5 293//5
f 138//3 137//3 293//3 294//3
f 140//6 138//6 294//6 296//6
f 139//1 140//1 296//1 295//1
f 141//5 143//5 299//5 297//5
f 142//3 141//3 297//3 298//3
f 144//6 142//6 298//6 300//6
f 143//1 144//1 300//1 299//1
f 145//5 147//5 303//5 301//5
f 146//3 145//3 301//3 302//3
f 148//6 146//6 302//6 304//6
f 147//1 148//1 304//1 303//1
f 149//5 151//5 307//5 305//5
f 150//3 149//3 305//3 306//3
f 152//6 150//6 306//6 308//6
f 151//1 152//1 308//1 307//1
f 153//5 155//5 311//5 309//5
f 154//3 153//3 309//3 310//3
f 156//6 154//6 310//6 312//6
f 155//1 156//1 312//1 311//1
