# Blender v2.76 (sub 0) OBJ File: 'predio.blend'
# www.blender.org
mtllib main_support.mtl
o entrysupport_Cube.003
v 2.608473 -0.012903 17.745434
v 2.608473 2.452925 17.745434
v 2.608473 -0.012903 18.837355
v 2.608473 2.452925 18.837355
v 4.608474 -0.012903 17.745434
v 4.608474 2.452925 17.745434
v 4.608474 -0.012903 18.837355
v 4.608474 2.452925 18.837355
v 3.515291 3.512036 18.837355
v 3.515291 3.512036 17.745434
v 2.163402 2.778717 18.837355
v 2.163402 2.778717 17.745434
v 2.608473 -0.012903 9.161977
v 2.608473 2.452925 9.161977
v 2.608473 -0.012903 10.253899
v 2.608473 2.452925 10.253899
v 4.608474 -0.012903 9.161977
v 4.608474 2.452925 9.161977
v 4.608474 -0.012903 10.253899
v 4.608474 2.452925 10.253899
v 3.515291 3.512036 10.253899
v 3.515291 3.512036 9.161977
v 2.163402 2.778717 10.253899
v 2.163402 2.778717 9.161977
v 2.608473 -0.012903 6.806056
v 2.608473 2.452925 6.806056
v 2.608473 -0.012903 7.897978
v 2.608473 2.452925 7.897978
v 4.608474 -0.012903 6.806056
v 4.608474 2.452925 6.806056
v 4.608474 -0.012903 7.897978
v 4.608474 2.452925 7.897978
v 3.515291 3.512036 7.897978
v 3.515291 3.512036 6.806056
v 2.163402 2.778717 7.897978
v 2.163402 2.778717 6.806056
v 2.608473 -0.012903 4.230845
v 2.608473 2.452925 4.230845
v 2.608473 -0.012903 5.322767
v 2.608473 2.452925 5.322767
v 4.608474 -0.012903 4.230845
v 4.608474 2.452925 4.230845
v 4.608474 -0.012903 5.322767
v 4.608474 2.452925 5.322767
v 3.515291 3.512036 5.322767
v 3.515291 3.512036 4.230845
v 2.163402 2.778717 5.322767
v 2.163402 2.778717 4.230845
v -2.608474 -0.012903 17.745434
v -2.608474 2.452925 17.745434
v -2.608474 -0.012903 18.837355
v -2.608474 2.452925 18.837355
v -4.608475 -0.012903 17.745434
v -4.608475 2.452925 17.745434
v -4.608475 -0.012903 18.837355
v -4.608475 2.452925 18.837355
v -3.515292 3.512036 18.837355
v -3.515292 3.512036 17.745434
v -2.163403 2.778717 18.837355
v -2.163403 2.778717 17.745434
v -0.000000 3.514614 18.837355
v -0.000000 3.514614 17.745434
v -0.000000 2.777554 18.837355
v -0.000000 2.777554 17.745434
v -2.608474 -0.012903 9.161977
v -2.608474 2.452925 9.161977
v -2.608474 -0.012903 10.253899
v -2.608474 2.452925 10.253899
v -4.608475 -0.012903 9.161977
v -4.608475 2.452925 9.161977
v -4.608475 -0.012903 10.253899
v -4.608475 2.452925 10.253899
v -3.515292 3.512036 10.253899
v -3.515292 3.512036 9.161977
v -2.163403 2.778717 10.253899
v -2.163403 2.778717 9.161977
v -0.000000 3.514614 10.253899
v -0.000000 3.514614 9.161977
v -0.000000 2.777554 10.253899
v -0.000000 2.777554 9.161977
v -2.608474 -0.012903 6.806056
v -2.608474 2.452925 6.806056
v -2.608474 -0.012903 7.897978
v -2.608474 2.452925 7.897978
v -4.608475 -0.012903 6.806056
v -4.608475 2.452925 6.806056
v -4.608475 -0.012903 7.897978
v -4.608475 2.452925 7.897978
v -3.515292 3.512036 7.897978
v -3.515292 3.512036 6.806056
v -2.163403 2.778717 7.897978
v -2.163403 2.778717 6.806056
v -0.000000 3.514614 7.897978
v -0.000000 3.514614 6.806056
v -0.000000 2.777554 7.897978
v -0.000000 2.777554 6.806056
v -2.608474 -0.012903 4.230845
v -2.608474 2.452925 4.230845
v -2.608474 -0.012903 5.322767
v -2.608474 2.452925 5.322767
v -4.608475 -0.012903 4.230845
v -4.608475 2.452925 4.230845
v -4.608475 -0.012903 5.322767
v -4.608475 2.452925 5.322767
v -3.515292 3.512036 5.322767
v -3.515292 3.512036 4.230845
v -2.163403 2.778717 5.322767
v -2.163403 2.778717 4.230845
v -0.000000 3.514614 5.322767
v -0.000000 3.514614 4.230845
v -0.000000 2.777554 5.322767
v -0.000000 2.777554 4.230845
vn 1.000000 0.000000 0.000000
vn 0.000000 0.000000 -1.000000
vn -1.000000 0.000000 0.000000
vn 0.000000 0.000000 1.000000
vn 0.000000 1.000000 0.000000
vn -0.695800 -0.718200 0.000000
vn 0.590700 0.806900 0.000000
vn -0.000500 1.000000 0.000000
vn -0.000700 -1.000000 0.000000
vn 0.695800 -0.718200 0.000000
vn -0.590700 0.806900 0.000000
vn 0.000500 1.000000 0.000000
vn 0.000700 -1.000000 0.000000
g entrysupport_Cube.003_RingMat.001
usemtl RingMat.001
s off
f 2//1 4//1 3//1 1//1
f 4//2 8//2 7//2 3//2
f 8//3 6//3 5//3 7//3
f 6//4 2//4 1//4 5//4
f 1//5 3//5 7//5 5//5
f 6//6 8//6 9//6 10//6
f 2//4 6//4 10//4 12//4
f 9//2 11//2 63//2 61//2
f 4//7 2//7 12//7 11//7
f 8//2 4//2 11//2 9//2
f 12//4 10//4 62//4 64//4
f 11//8 12//8 64//8 63//8
f 10//9 9//9 61//9 62//9
f 14//1 16//1 15//1 13//1
f 16//2 20//2 19//2 15//2
f 20//3 18//3 17//3 19//3
f 18//4 14//4 13//4 17//4
f 13//5 15//5 19//5 17//5
f 18//6 20//6 21//6 22//6
f 14//4 18//4 22//4 24//4
f 21//2 23//2 79//2 77//2
f 16//7 14//7 24//7 23//7
f 20//2 16//2 23//2 21//2
f 24//4 22//4 78//4 80//4
f 23//8 24//8 80//8 79//8
f 22//9 21//9 77//9 78//9
f 26//1 28//1 27//1 25//1
f 28//2 32//2 31//2 27//2
f 32//3 30//3 29//3 31//3
f 30//4 26//4 25//4 29//4
f 25//5 27//5 31//5 29//5
f 30//6 32//6 33//6 34//6
f 26//4 30//4 34//4 36//4
f 33//2 35//2 95//2 93//2
f 28//7 26//7 36//7 35//7
f 32//2 28//2 35//2 33//2
f 36//4 34//4 94//4 96//4
f 35//8 36//8 96//8 95//8
f 34//9 33//9 93//9 94//9
f 38//1 40//1 39//1 37//1
f 40//2 44//2 43//2 39//2
f 44//3 42//3 41//3 43//3
f 42//4 38//4 37//4 41//4
f 37//5 39//5 43//5 41//5
f 42//6 44//6 45//6 46//6
f 38//4 42//4 46//4 48//4
f 45//2 47//2 111//2 109//2
f 40//7 38//7 48//7 47//7
f 44//2 40//2 47//2 45//2
f 48//4 46//4 110//4 112//4
f 47//8 48//8 112//8 111//8
f 46//9 45//9 109//9 110//9
f 50//3 49//3 51//3 52//3
f 52//2 51//2 55//2 56//2
f 56//1 55//1 53//1 54//1
f 54//4 53//4 49//4 50//4
f 49//5 53//5 55//5 51//5
f 54//10 58//10 57//10 56//10
f 50//4 60//4 58//4 54//4
f 57//2 61//2 63//2 59//2
f 63//3 61//3 62//3 64//3
f 52//11 59//11 60//11 50//11
f 56//2 57//2 59//2 52//2
f 60//4 64//4 62//4 58//4
f 59//12 63//12 64//12 60//12
f 58//13 62//13 61//13 57//13
f 66//3 65//3 67//3 68//3
f 68//2 67//2 71//2 72//2
f 72//1 71//1 69//1 70//1
f 70//4 69//4 65//4 66//4
f 65//5 69//5 71//5 67//5
f 70//10 74//10 73//10 72//10
f 66//4 76//4 74//4 70//4
f 73//2 77//2 79//2 75//2
f 79//3 77//3 78//3 80//3
f 68//11 75//11 76//11 66//11
f 72//2 73//2 75//2 68//2
f 76//4 80//4 78//4 74//4
f 75//12 79//12 80//12 76//12
f 74//13 78//13 77//13 73//13
f 82//3 81//3 83//3 84//3
f 84//2 83//2 87//2 88//2
f 88//1 87//1 85//1 86//1
f 86//4 85//4 81//4 82//4
f 81//5 85//5 87//5 83//5
f 86//10 90//10 89//10 88//10
f 82//4 92//4 90//4 86//4
f 89//2 93//2 95//2 91//2
f 95//3 93//3 94//3 96//3
f 84//11 91//11 92//11 82//11
f 88//2 89//2 91//2 84//2
f 92//4 96//4 94//4 90//4
f 91//12 95//12 96//12 92//12
f 90//13 94//13 93//13 89//13
f 98//3 97//3 99//3 100//3
f 100//2 99//2 103//2 104//2
f 104//1 103//1 101//1 102//1
f 102//4 101//4 97//4 98//4
f 97//5 101//5 103//5 99//5
f 102//10 106//10 105//10 104//10
f 98//4 108//4 106//4 102//4
f 105//2 109//2 111//2 107//2
f 111//3 109//3 110//3 112//3
f 100//11 107//11 108//11 98//11
f 104//2 105//2 107//2 100//2
f 108//4 112//4 110//4 106//4
f 107//12 111//12 112//12 108//12
f 106//13 110//13 109//13 105//13
